<svg width="900" height="300" viewBox="0 0 900 300" xmlns="http://www.w3.org/2000/svg">
  <defs>
    <pattern id="grid" width="40" height="40" patternUnits="userSpaceOnUse">
      <path d="M 40 0 L 0 0 0 40" fill="none" stroke="#7c3aed" stroke-width="0.3" opacity="0.25"/>
    </pattern>
    <linearGradient id="fade-left" x1="0" y1="0" x2="1" y2="0">
      <stop offset="0%" stop-color="#0a0a0f" stop-opacity="1"/>
      <stop offset="30%" stop-color="#0a0a0f" stop-opacity="0"/>
    </linearGradient>
    <linearGradient id="fade-right" x1="0" y1="0" x2="1" y2="0">
      <stop offset="70%" stop-color="#0a0a0f" stop-opacity="0"/>
      <stop offset="100%" stop-color="#0a0a0f" stop-opacity="1"/>
    </linearGradient>
  </defs>
  <style>
    .row { animation: rowIn 0.7s ease-out backwards; }
    .r0 { animation-delay: 0.1s; }
    .r1 { animation-delay: 0.35s; }
    .r2 { animation-delay: 0.6s; }
    .r3 { animation-delay: 0.85s; }
    @keyframes rowIn { from { opacity: 0; } to { opacity: 1; } }
    .cursor { animation: blink 1.2s steps(1) infinite; }
    @keyframes blink { 0%, 55% { opacity: 1; } 56%, 100% { opacity: 0; } }
  </style>
  <rect width="900" height="300" fill="#0a0a0f"/>
  <rect width="900" height="300" fill="url(#grid)"/>
  <rect width="900" height="300" fill="url(#fade-left)"/>
  <rect width="900" height="300" fill="url(#fade-right)"/>
  <line x1="60" y1="20" x2="840" y2="20" stroke="#7c3aed" stroke-width="0.5" opacity="0.35"/>
  <line x1="60" y1="280" x2="840" y2="280" stroke="#7c3aed" stroke-width="0.5" opacity="0.3"/>
  <text x="840" y="268" text-anchor="end" font-family="'JetBrains Mono', monospace" font-size="10" fill="#ffffff" opacity="0.2" letter-spacing="2">TOOLS I REACH FOR</text>

  <g class="row r0">
    <text x="60" y="68" font-family="'JetBrains Mono', monospace" font-size="12" fill="#a78bfa" letter-spacing="2">languages_</text>
    <rect x="205" y="48" width="68" height="32" rx="16" fill="#7c3aed" opacity="0.18"/><rect x="205" y="48" width="68" height="32" rx="16" fill="none" stroke="#a78bfa" stroke-width="1" opacity="0.65"/><text x="239" y="68" text-anchor="middle" font-family="'JetBrains Mono', monospace" font-size="13" fill="#c4b5fd" letter-spacing="0.5">rust</text>
    <rect x="285" y="48" width="60" height="32" rx="16" fill="#7c3aed" opacity="0.18"/><rect x="285" y="48" width="60" height="32" rx="16" fill="none" stroke="#a78bfa" stroke-width="1" opacity="0.65"/><text x="315" y="68" text-anchor="middle" font-family="'JetBrains Mono', monospace" font-size="13" fill="#c4b5fd" letter-spacing="0.5">c++</text>
    <rect x="357" y="48" width="68" height="32" rx="16" fill="#7c3aed" opacity="0.18"/><rect x="357" y="48" width="68" height="32" rx="16" fill="none" stroke="#a78bfa" stroke-width="1" opacity="0.65"/><text x="391" y="68" text-anchor="middle" font-family="'JetBrains Mono', monospace" font-size="13" fill="#c4b5fd" letter-spacing="0.5">java</text>
    <rect x="437" y="48" width="116" height="32" rx="16" fill="#7c3aed" opacity="0.18"/><rect x="437" y="48" width="116" height="32" rx="16" fill="none" stroke="#a78bfa" stroke-width="1" opacity="0.65"/><text x="495" y="68" text-anchor="middle" font-family="'JetBrains Mono', monospace" font-size="13" fill="#c4b5fd" letter-spacing="0.5">typescript</text>
    <rect x="565" y="48" width="84" height="32" rx="16" fill="#7c3aed" opacity="0.18"/><rect x="565" y="48" width="84" height="32" rx="16" fill="none" stroke="#a78bfa" stroke-width="1" opacity="0.65"/><text x="607" y="68" text-anchor="middle" font-family="'JetBrains Mono', monospace" font-size="13" fill="#c4b5fd" letter-spacing="0.5">python</text>
  </g>
  <g class="row r1">
    <text x="60" y="126" font-family="'JetBrains Mono', monospace" font-size="12" fill="#a78bfa" letter-spacing="2">graphics_</text>
    <rect x="205" y="106" width="84" height="32" rx="16" fill="#7c3aed" opacity="0.18"/><rect x="205" y="106" width="84" height="32" rx="16" fill="none" stroke="#a78bfa" stroke-width="1" opacity="0.65"/><text x="247" y="126" text-anchor="middle" font-family="'JetBrains Mono', monospace" font-size="13" fill="#c4b5fd" letter-spacing="0.5">vulkan</text>
    <rect x="301" y="106" width="68" height="32" rx="16" fill="#7c3aed" opacity="0.18"/><rect x="301" y="106" width="68" height="32" rx="16" fill="none" stroke="#a78bfa" stroke-width="1" opacity="0.65"/><text x="335" y="126" text-anchor="middle" font-family="'JetBrains Mono', monospace" font-size="13" fill="#c4b5fd" letter-spacing="0.5">glsl</text>
    <rect x="381" y="106" width="92" height="32" rx="16" fill="#7c3aed" opacity="0.18"/><rect x="381" y="106" width="92" height="32" rx="16" fill="none" stroke="#a78bfa" stroke-width="1" opacity="0.65"/><text x="427" y="126" text-anchor="middle" font-family="'JetBrains Mono', monospace" font-size="13" fill="#c4b5fd" letter-spacing="0.5">compute</text>
    <rect x="485" y="106" width="68" height="32" rx="16" fill="#7c3aed" opacity="0.18"/><rect x="485" y="106" width="68" height="32" rx="16" fill="none" stroke="#a78bfa" stroke-width="1" opacity="0.65"/><text x="519" y="126" text-anchor="middle" font-family="'JetBrains Mono', monospace" font-size="13" fill="#c4b5fd" letter-spacing="0.5">simd</text>
    <rect x="565" y="106" width="60" height="32" rx="16" fill="#7c3aed" opacity="0.18"/><rect x="565" y="106" width="60" height="32" rx="16" fill="none" stroke="#a78bfa" stroke-width="1" opacity="0.65"/><text x="595" y="126" text-anchor="middle" font-family="'JetBrains Mono', monospace" font-size="13" fill="#c4b5fd" letter-spacing="0.5">ecs</text>
  </g>
  <g class="row r2">
    <text x="60" y="184" font-family="'JetBrains Mono', monospace" font-size="12" fill="#a78bfa" letter-spacing="2">backend_</text>
    <rect x="205" y="164" width="84" height="32" rx="16" fill="#ffffff" opacity="0.05"/><rect x="205" y="164" width="84" height="32" rx="16" fill="none" stroke="#ffffff" stroke-width="0.8" opacity="0.28"/><text x="247" y="184" text-anchor="middle" font-family="'JetBrains Mono', monospace" font-size="13" fill="#e6e6ec" opacity="0.85" letter-spacing="0.5">spring</text>
    <rect x="301" y="164" width="84" height="32" rx="16" fill="#ffffff" opacity="0.05"/><rect x="301" y="164" width="84" height="32" rx="16" fill="none" stroke="#ffffff" stroke-width="0.8" opacity="0.28"/><text x="343" y="184" text-anchor="middle" font-family="'JetBrains Mono', monospace" font-size="13" fill="#e6e6ec" opacity="0.85" letter-spacing="0.5">nestjs</text>
    <rect x="397" y="164" width="100" height="32" rx="16" fill="#ffffff" opacity="0.05"/><rect x="397" y="164" width="100" height="32" rx="16" fill="none" stroke="#ffffff" stroke-width="0.8" opacity="0.28"/><text x="447" y="184" text-anchor="middle" font-family="'JetBrains Mono', monospace" font-size="13" fill="#e6e6ec" opacity="0.85" letter-spacing="0.5">postgres</text>
    <rect x="509" y="164" width="84" height="32" rx="16" fill="#ffffff" opacity="0.05"/><rect x="509" y="164" width="84" height="32" rx="16" fill="none" stroke="#ffffff" stroke-width="0.8" opacity="0.28"/><text x="551" y="184" text-anchor="middle" font-family="'JetBrains Mono', monospace" font-size="13" fill="#e6e6ec" opacity="0.85" letter-spacing="0.5">stripe</text>
    <rect x="605" y="164" width="84" height="32" rx="16" fill="#ffffff" opacity="0.05"/><rect x="605" y="164" width="84" height="32" rx="16" fill="none" stroke="#ffffff" stroke-width="0.8" opacity="0.28"/><text x="647" y="184" text-anchor="middle" font-family="'JetBrains Mono', monospace" font-size="13" fill="#e6e6ec" opacity="0.85" letter-spacing="0.5">aws s3</text>
  </g>
  <g class="row r3">
    <text x="60" y="242" font-family="'JetBrains Mono', monospace" font-size="12" fill="#a78bfa" letter-spacing="2">toolbox_</text>
    <rect x="205" y="222" width="76" height="32" rx="16" fill="#ffffff" opacity="0.05"/><rect x="205" y="222" width="76" height="32" rx="16" fill="none" stroke="#ffffff" stroke-width="0.8" opacity="0.28"/><text x="243" y="242" text-anchor="middle" font-family="'JetBrains Mono', monospace" font-size="13" fill="#e6e6ec" opacity="0.85" letter-spacing="0.5">cmake</text>
    <rect x="293" y="222" width="84" height="32" rx="16" fill="#ffffff" opacity="0.05"/><rect x="293" y="222" width="84" height="32" rx="16" fill="none" stroke="#ffffff" stroke-width="0.8" opacity="0.28"/><text x="335" y="242" text-anchor="middle" font-family="'JetBrains Mono', monospace" font-size="13" fill="#e6e6ec" opacity="0.85" letter-spacing="0.5">docker</text>
    <rect x="389" y="222" width="60" height="32" rx="16" fill="#ffffff" opacity="0.05"/><rect x="389" y="222" width="60" height="32" rx="16" fill="none" stroke="#ffffff" stroke-width="0.8" opacity="0.28"/><text x="419" y="242" text-anchor="middle" font-family="'JetBrains Mono', monospace" font-size="13" fill="#e6e6ec" opacity="0.85" letter-spacing="0.5">git</text>
    <rect x="461" y="222" width="76" height="32" rx="16" fill="#ffffff" opacity="0.05"/><rect x="461" y="222" width="76" height="32" rx="16" fill="none" stroke="#ffffff" stroke-width="0.8" opacity="0.28"/><text x="499" y="242" text-anchor="middle" font-family="'JetBrains Mono', monospace" font-size="13" fill="#e6e6ec" opacity="0.85" letter-spacing="0.5">linux</text>
    <rect class="cursor" x="551" y="228" width="8" height="16" fill="#c4b5fd" opacity="0.9"/>
  </g>
</svg>
