<svg xmlns="http://www.w3.org/2000/svg" width="900" height="272" viewBox="0 0 900 272" role="img" aria-labelledby="title desc">
<title id="title">407 contributions over 26 weeks</title>
<desc id="desc">Weekly GitHub contributions from 2026-03-29 to 2026-09-23. The final week may be partial. Contributions include commits, issues, pull requests, and reviews recorded by GitHub.</desc>
<defs><linearGradient id="sheen" x1="0" y1="0" x2="1" y2="1"><stop offset="0%" stop-color="#7c3aed" stop-opacity="0.09"/><stop offset="45%" stop-color="#7c3aed" stop-opacity="0"/></linearGradient></defs>
<style>.bar { animation: grow 0.6s cubic-bezier(0.2, 0.7, 0.3, 1) backwards; transform-origin: center bottom; }@keyframes grow { from { transform: scaleY(0); opacity: 0.4; } to { transform: scaleY(1); opacity: 1; } }.cursor { animation: blink 1.1s steps(1) infinite; }@keyframes blink { 0%, 55% { opacity: 1; } 56%, 100% { opacity: 0; } }</style>
<rect x="0.5" y="0.5" width="899" height="271" rx="12" fill="#0d0d16"/>
<rect x="0.5" y="0.5" width="899" height="271" rx="12" fill="url(#sheen)"/>
<rect x="0.5" y="0.5" width="899" height="271" rx="12" fill="none" stroke="#23233a" stroke-width="1"/>
<g font-family="'JetBrains Mono', monospace">
<text x="32" y="40" fill="#e6e6ec" font-size="19" font-weight="700">407 contributions</text>
<text x="32" y="62" fill="#8b949e" font-size="12" letter-spacing="1">last 26 weeks &#183; weekly totals</text>
<text x="868" y="40" text-anchor="end" fill="#a78bfa" font-size="12" opacity="0.8">through 23 Sep 2026</text>
<path d="M64 206.0H868" stroke="#23233a"/>
<text x="50" y="210.0" text-anchor="end" fill="#8b949e" font-size="11">0</text>
<path d="M64 148.0H868" stroke="#23233a"/>
<text x="50" y="152.0" text-anchor="end" fill="#8b949e" font-size="11">25</text>
<path d="M64 90.0H868" stroke="#23233a"/>
<text x="50" y="94.0" text-anchor="end" fill="#8b949e" font-size="11">50</text>
<text x="79.0" y="229" text-anchor="middle" fill="#8b949e" font-size="11">29 Mar</text>
<rect class="bar" style="animation-delay: 0.18s" x="191.0" y="185.1" width="20" height="20.9" rx="2" fill="#7c3aed"><title>2026-04-26 to 2026-05-02: 9 contributions</title></rect>
<rect class="bar" style="animation-delay: 0.22s" x="221.5" y="182.8" width="20" height="23.2" rx="2" fill="#7c3aed"><title>2026-05-03 to 2026-05-09: 10 contributions</title></rect>
<text x="231.5" y="229" text-anchor="middle" fill="#8b949e" font-size="11">03 May</text>
<rect class="bar" style="animation-delay: 0.27s" x="252.0" y="150.3" width="20" height="55.7" rx="2" fill="#7c3aed"><title>2026-05-10 to 2026-05-16: 24 contributions</title></rect>
<rect class="bar" style="animation-delay: 0.32s" x="282.5" y="164.2" width="20" height="41.8" rx="2" fill="#7c3aed"><title>2026-05-17 to 2026-05-23: 18 contributions</title></rect>
<rect class="bar" style="animation-delay: 0.36s" x="313.0" y="159.6" width="20" height="46.4" rx="2" fill="#7c3aed"><title>2026-05-24 to 2026-05-30: 20 contributions</title></rect>
<rect class="bar" style="animation-delay: 0.40s" x="343.5" y="180.5" width="20" height="25.5" rx="2" fill="#7c3aed"><title>2026-05-31 to 2026-06-06: 11 contributions</title></rect>
<rect class="bar" style="animation-delay: 0.45s" x="374.0" y="141.0" width="20" height="65.0" rx="2" fill="#7c3aed"><title>2026-06-07 to 2026-06-13: 28 contributions</title></rect>
<text x="384.0" y="229" text-anchor="middle" fill="#8b949e" font-size="11">07 Jun</text>
<rect class="bar" style="animation-delay: 0.49s" x="404.5" y="201.4" width="20" height="4.6" rx="2" fill="#7c3aed"><title>2026-06-14 to 2026-06-20: 2 contributions</title></rect>
<rect class="bar" style="animation-delay: 0.54s" x="435.0" y="199.0" width="20" height="7.0" rx="2" fill="#7c3aed"><title>2026-06-21 to 2026-06-27: 3 contributions</title></rect>
<rect class="bar" style="animation-delay: 0.58s" x="465.5" y="129.4" width="20" height="76.6" rx="2" fill="#7c3aed"><title>2026-06-28 to 2026-07-04: 33 contributions</title></rect>
<rect class="bar" style="animation-delay: 0.63s" x="496.0" y="129.4" width="20" height="76.6" rx="2" fill="#7c3aed"><title>2026-07-05 to 2026-07-11: 33 contributions</title></rect>
<rect class="bar" style="animation-delay: 0.67s" x="526.5" y="145.7" width="20" height="60.3" rx="2" fill="#7c3aed"><title>2026-07-12 to 2026-07-18: 26 contributions</title></rect>
<text x="536.5" y="229" text-anchor="middle" fill="#8b949e" font-size="11">12 Jul</text>
<rect class="bar" style="animation-delay: 0.72s" x="557.0" y="110.9" width="20" height="95.1" rx="2" fill="#7c3aed"><title>2026-07-19 to 2026-07-25: 41 contributions</title></rect>
<rect class="bar" style="animation-delay: 0.77s" x="587.5" y="127.1" width="20" height="78.9" rx="2" fill="#7c3aed"><title>2026-07-26 to 2026-08-01: 34 contributions</title></rect>
<rect class="bar" style="animation-delay: 0.81s" x="618.0" y="171.2" width="20" height="34.8" rx="2" fill="#7c3aed"><title>2026-08-02 to 2026-08-08: 15 contributions</title></rect>
<rect class="bar" style="animation-delay: 0.85s" x="648.5" y="192.1" width="20" height="13.9" rx="2" fill="#7c3aed"><title>2026-08-09 to 2026-08-15: 6 contributions</title></rect>
<rect class="bar" style="animation-delay: 0.90s" x="679.0" y="173.5" width="20" height="32.5" rx="2" fill="#7c3aed"><title>2026-08-16 to 2026-08-22: 14 contributions</title></rect>
<text x="689.0" y="229" text-anchor="middle" fill="#8b949e" font-size="11">16 Aug</text>
<rect class="bar" style="animation-delay: 0.94s" x="709.5" y="164.2" width="20" height="41.8" rx="2" fill="#7c3aed"><title>2026-08-23 to 2026-08-29: 18 contributions</title></rect>
<rect class="bar" style="animation-delay: 0.99s" x="740.0" y="145.7" width="20" height="60.3" rx="2" fill="#7c3aed"><title>2026-08-30 to 2026-09-05: 26 contributions</title></rect>
<rect class="bar" style="animation-delay: 1.03s" x="770.5" y="189.8" width="20" height="16.2" rx="2" fill="#7c3aed"><title>2026-09-06 to 2026-09-12: 7 contributions</title></rect>
<rect class="bar" style="animation-delay: 1.08s" x="801.0" y="175.8" width="20" height="30.2" rx="2" fill="#7c3aed"><title>2026-09-13 to 2026-09-19: 13 contributions</title></rect>
<rect class="bar" style="animation-delay: 1.12s" x="831.5" y="168.9" width="20" height="37.1" rx="2" fill="#c4b5fd"><title>2026-09-20 to 2026-09-23: 16 contributions</title></rect>
<text x="841.5" y="229" text-anchor="middle" fill="#8b949e" font-size="11">20 Sep</text>
<text x="32" y="254" fill="#7c3aed" font-size="12" font-weight="700">$</text>
<text x="50" y="254" fill="#8b949e" font-size="11">latest week may be partial</text>
<rect class="cursor" x="222" y="243" width="7" height="14" fill="#c4b5fd" opacity="0.9"/>
</g></svg>
